<svg xmlns="http://www.w3.org/2000/svg" xmlns:xlink="http://www.w3.org/1999/xlink" contentStyleType="text/css" height="494px" preserveAspectRatio="none" style="width:885px;height:494px;background:#FFFFFF;" version="1.1" viewBox="0 0 885 494" width="885px" zoomAndPan="magnify"><defs/><g><!--class GeometryInterface--><g id="elem_GeometryInterface"><rect codeLine="290" fill="#F1F1F1" height="48" id="GeometryInterface" rx="2.5" ry="2.5" style="stroke:#181818;stroke-width:0.5;" width="157.002" x="423.77" y="7"/><ellipse cx="438.77" cy="23" fill="#B4A7E5" rx="11" ry="11" style="stroke:#181818;stroke-width:1.0;"/><path d="M435.1977,19.2651 L435.1977,17.1069 L442.5771,17.1069 L442.5771,19.2651 L440.1118,19.2651 L440.1118,27.3418 L442.5771,27.3418 L442.5771,29.5 L435.1977,29.5 L435.1977,27.3418 L437.6631,27.3418 L437.6631,19.2651 Z " fill="#000000"/><text fill="#000000" font-family="sans-serif" font-size="14" font-style="italic" lengthAdjust="spacing" textLength="125.002" x="452.77" y="28.291">GeometryInterface</text><line style="stroke:#181818;stroke-width:0.5;" x1="424.77" x2="579.772" y1="39" y2="39"/><line style="stroke:#181818;stroke-width:0.5;" x1="424.77" x2="579.772" y1="47" y2="47"/></g><!--class Jsonable--><g id="elem_Jsonable"><rect codeLine="291" fill="#F1F1F1" height="48" id="Jsonable" rx="2.5" ry="2.5" style="stroke:#181818;stroke-width:0.5;" width="89.1689" x="615.69" y="7"/><ellipse cx="630.69" cy="23" fill="#B4A7E5" rx="11" ry="11" style="stroke:#181818;stroke-width:1.0;"/><path d="M627.1177,19.2651 L627.1177,17.1069 L634.4971,17.1069 L634.4971,19.2651 L632.0318,19.2651 L632.0318,27.3418 L634.4971,27.3418 L634.4971,29.5 L627.1177,29.5 L627.1177,27.3418 L629.5831,27.3418 L629.5831,19.2651 Z " fill="#000000"/><text fill="#000000" font-family="sans-serif" font-size="14" font-style="italic" lengthAdjust="spacing" textLength="57.1689" x="644.69" y="28.291">Jsonable</text><line style="stroke:#181818;stroke-width:0.5;" x1="616.69" x2="703.8589" y1="39" y2="39"/><line style="stroke:#181818;stroke-width:0.5;" x1="616.69" x2="703.8589" y1="47" y2="47"/></g><!--class JsonSerializable--><g id="elem_JsonSerializable"><rect codeLine="292" fill="#F1F1F1" height="48" id="JsonSerializable" rx="2.5" ry="2.5" style="stroke:#181818;stroke-width:0.5;" width="138.1348" x="740.21" y="7"/><ellipse cx="755.21" cy="23" fill="#B4A7E5" rx="11" ry="11" style="stroke:#181818;stroke-width:1.0;"/><path d="M751.6377,19.2651 L751.6377,17.1069 L759.0171,17.1069 L759.0171,19.2651 L756.5518,19.2651 L756.5518,27.3418 L759.0171,27.3418 L759.0171,29.5 L751.6377,29.5 L751.6377,27.3418 L754.1031,27.3418 L754.1031,19.2651 Z " fill="#000000"/><text fill="#000000" font-family="sans-serif" font-size="14" font-style="italic" lengthAdjust="spacing" textLength="106.1348" x="769.21" y="28.291">JsonSerializable</text><line style="stroke:#181818;stroke-width:0.5;" x1="741.21" x2="877.3448" y1="39" y2="39"/><line style="stroke:#181818;stroke-width:0.5;" x1="741.21" x2="877.3448" y1="47" y2="47"/></g><!--class Arrayable--><g id="elem_Arrayable"><rect codeLine="293" fill="#F1F1F1" height="48" id="Arrayable" rx="2.5" ry="2.5" style="stroke:#181818;stroke-width:0.5;" width="96.5518" x="7" y="115"/><ellipse cx="22" cy="131" fill="#B4A7E5" rx="11" ry="11" style="stroke:#181818;stroke-width:1.0;"/><path d="M18.4277,127.2651 L18.4277,125.1069 L25.8071,125.1069 L25.8071,127.2651 L23.3418,127.2651 L23.3418,135.3418 L25.8071,135.3418 L25.8071,137.5 L18.4277,137.5 L18.4277,135.3418 L20.8931,135.3418 L20.8931,127.2651 Z " fill="#000000"/><text fill="#000000" font-family="sans-serif" font-size="14" font-style="italic" lengthAdjust="spacing" textLength="64.5518" x="36" y="136.291">Arrayable</text><line style="stroke:#181818;stroke-width:0.5;" x1="8" x2="102.5518" y1="147" y2="147"/><line style="stroke:#181818;stroke-width:0.5;" x1="8" x2="102.5518" y1="155" y2="155"/></g><!--class IteratorAggregate--><g id="elem_IteratorAggregate"><rect codeLine="294" fill="#F1F1F1" height="48" id="IteratorAggregate" rx="2.5" ry="2.5" style="stroke:#181818;stroke-width:0.5;" width="152.2373" x="138.16" y="115"/><ellipse cx="153.16" cy="131" fill="#B4A7E5" rx="11" ry="11" style="stroke:#181818;stroke-width:1.0;"/><path d="M149.5877,127.2651 L149.5877,125.1069 L156.9671,125.1069 L156.9671,127.2651 L154.5018,127.2651 L154.5018,135.3418 L156.9671,135.3418 L156.9671,137.5 L149.5877,137.5 L149.5877,135.3418 L152.0531,135.3418 L152.0531,127.2651 Z " fill="#000000"/><text fill="#000000" font-family="sans-serif" font-size="14" font-style="italic" lengthAdjust="spacing" textLength="120.2373" x="167.16" y="136.291">IteratorAggregate</text><line style="stroke:#181818;stroke-width:0.5;" x1="139.16" x2="289.3973" y1="147" y2="147"/><line style="stroke:#181818;stroke-width:0.5;" x1="139.16" x2="289.3973" y1="155" y2="155"/></g><!--class Countable--><g id="elem_Countable"><rect codeLine="295" fill="#F1F1F1" height="48" id="Countable" rx="2.5" ry="2.5" style="stroke:#181818;stroke-width:0.5;" width="101.2891" x="325.63" y="115"/><ellipse cx="340.63" cy="131" fill="#B4A7E5" rx="11" ry="11" style="stroke:#181818;stroke-width:1.0;"/><path d="M337.0577,127.2651 L337.0577,125.1069 L344.4371,125.1069 L344.4371,127.2651 L341.9718,127.2651 L341.9718,135.3418 L344.4371,135.3418 L344.4371,137.5 L337.0577,137.5 L337.0577,135.3418 L339.5231,135.3418 L339.5231,127.2651 Z " fill="#000000"/><text fill="#000000" font-family="sans-serif" font-size="14" font-style="italic" lengthAdjust="spacing" textLength="69.2891" x="354.63" y="136.291">Countable</text><line style="stroke:#181818;stroke-width:0.5;" x1="326.63" x2="425.9191" y1="147" y2="147"/><line style="stroke:#181818;stroke-width:0.5;" x1="326.63" x2="425.9191" y1="155" y2="155"/></g><!--class ArrayAccess--><g id="elem_ArrayAccess"><rect codeLine="296" fill="#F1F1F1" height="48" id="ArrayAccess" rx="2.5" ry="2.5" style="stroke:#181818;stroke-width:0.5;" width="114.2363" x="462.16" y="115"/><ellipse cx="477.16" cy="131" fill="#B4A7E5" rx="11" ry="11" style="stroke:#181818;stroke-width:1.0;"/><path d="M473.5877,127.2651 L473.5877,125.1069 L480.9671,125.1069 L480.9671,127.2651 L478.5018,127.2651 L478.5018,135.3418 L480.9671,135.3418 L480.9671,137.5 L473.5877,137.5 L473.5877,135.3418 L476.0531,135.3418 L476.0531,127.2651 Z " fill="#000000"/><text fill="#000000" font-family="sans-serif" font-size="14" font-style="italic" lengthAdjust="spacing" textLength="82.2363" x="491.16" y="136.291">ArrayAccess</text><line style="stroke:#181818;stroke-width:0.5;" x1="463.16" x2="575.3963" y1="147" y2="147"/><line style="stroke:#181818;stroke-width:0.5;" x1="463.16" x2="575.3963" y1="155" y2="155"/></g><!--class Geometry--><g id="elem_Geometry"><rect codeLine="297" fill="#F1F1F1" height="48" id="Geometry" rx="2.5" ry="2.5" style="stroke:#181818;stroke-width:0.5;" width="97.666" x="611.44" y="115"/><ellipse cx="626.44" cy="131" fill="#A9DCDF" rx="11" ry="11" style="stroke:#181818;stroke-width:1.0;"/><path d="M626.3033,126.3481 L625.1495,131.4199 L627.4654,131.4199 Z M624.8091,124.1069 L627.8057,124.1069 L631.1509,136.5 L628.7022,136.5 L627.9385,133.437 L624.6597,133.437 L623.9127,136.5 L621.4639,136.5 Z " fill="#000000"/><text fill="#000000" font-family="sans-serif" font-size="14" font-style="italic" lengthAdjust="spacing" textLength="65.666" x="640.44" y="136.291">Geometry</text><line style="stroke:#181818;stroke-width:0.5;" x1="612.44" x2="708.106" y1="147" y2="147"/><line style="stroke:#181818;stroke-width:0.5;" x1="612.44" x2="708.106" y1="155" y2="155"/></g><!--class GeometryCollection--><g id="elem_GeometryCollection"><rect codeLine="298" fill="#F1F1F1" height="48" id="GeometryCollection" rx="2.5" ry="2.5" style="stroke:#181818;stroke-width:0.5;" width="165.5879" x="293.48" y="223"/><ellipse cx="308.48" cy="239" fill="#ADD1B2" rx="11" ry="11" style="stroke:#181818;stroke-width:1.0;"/><path d="M310.9531,245.1431 Q310.3721,245.4419 309.7329,245.5913 Q309.0938,245.7407 308.3882,245.7407 Q305.8814,245.7407 304.5615,244.0889 Q303.2417,242.437 303.2417,239.3159 Q303.2417,236.1865 304.5615,234.5347 Q305.8814,232.8828 308.3882,232.8828 Q309.0938,232.8828 309.7412,233.0322 Q310.3887,233.1816 310.9531,233.4805 L310.9531,236.2031 Q310.3223,235.6221 309.7288,235.3523 Q309.1353,235.0825 308.5044,235.0825 Q307.1597,235.0825 306.4749,236.1492 Q305.7901,237.2158 305.7901,239.3159 Q305.7901,241.4077 306.4749,242.4744 Q307.1597,243.541 308.5044,243.541 Q309.1353,243.541 309.7288,243.2712 Q310.3223,243.0015 310.9531,242.4204 Z " fill="#000000"/><text fill="#000000" font-family="sans-serif" font-size="14" lengthAdjust="spacing" textLength="133.5879" x="322.48" y="244.291">GeometryCollection</text><line style="stroke:#181818;stroke-width:0.5;" x1="294.48" x2="458.0679" y1="255" y2="255"/><line style="stroke:#181818;stroke-width:0.5;" x1="294.48" x2="458.0679" y1="263" y2="263"/></g><!--class Point--><g id="elem_Point"><rect codeLine="299" fill="#F1F1F1" height="48" id="Point" rx="2.5" ry="2.5" style="stroke:#181818;stroke-width:0.5;" width="66.3096" x="627.12" y="223"/><ellipse cx="642.12" cy="239" fill="#ADD1B2" rx="11" ry="11" style="stroke:#181818;stroke-width:1.0;"/><path d="M644.5931,245.1431 Q644.0121,245.4419 643.3729,245.5913 Q642.7338,245.7407 642.0282,245.7407 Q639.5214,245.7407 638.2015,244.0889 Q636.8817,242.437 636.8817,239.3159 Q636.8817,236.1865 638.2015,234.5347 Q639.5214,232.8828 642.0282,232.8828 Q642.7338,232.8828 643.3812,233.0322 Q644.0287,233.1816 644.5931,233.4805 L644.5931,236.2031 Q643.9623,235.6221 643.3688,235.3523 Q642.7753,235.0825 642.1444,235.0825 Q640.7997,235.0825 640.1149,236.1492 Q639.4301,237.2158 639.4301,239.3159 Q639.4301,241.4077 640.1149,242.4744 Q640.7997,243.541 642.1444,243.541 Q642.7753,243.541 643.3688,243.2712 Q643.9623,243.0015 644.5931,242.4204 Z " fill="#000000"/><text fill="#000000" font-family="sans-serif" font-size="14" lengthAdjust="spacing" textLength="34.3096" x="656.12" y="244.291">Point</text><line style="stroke:#181818;stroke-width:0.5;" x1="628.12" x2="692.4296" y1="255" y2="255"/><line style="stroke:#181818;stroke-width:0.5;" x1="628.12" x2="692.4296" y1="263" y2="263"/></g><!--class PointCollection--><g id="elem_PointCollection"><rect codeLine="300" fill="#F1F1F1" height="48" id="PointCollection" rx="2.5" ry="2.5" style="stroke:#181818;stroke-width:0.5;" width="134.2314" x="140.16" y="331"/><ellipse cx="155.16" cy="347" fill="#A9DCDF" rx="11" ry="11" style="stroke:#181818;stroke-width:1.0;"/><path d="M155.0233,342.3481 L153.8695,347.4199 L156.1854,347.4199 Z M153.5291,340.1069 L156.5257,340.1069 L159.8709,352.5 L157.4222,352.5 L156.6585,349.437 L153.3797,349.437 L152.6327,352.5 L150.1839,352.5 Z " fill="#000000"/><text fill="#000000" font-family="sans-serif" font-size="14" font-style="italic" lengthAdjust="spacing" textLength="102.2314" x="169.16" y="352.291">PointCollection</text><line style="stroke:#181818;stroke-width:0.5;" x1="141.16" x2="273.3914" y1="363" y2="363"/><line style="stroke:#181818;stroke-width:0.5;" x1="141.16" x2="273.3914" y1="371" y2="371"/></g><!--class MultiLineString--><g id="elem_MultiLineString"><rect codeLine="301" fill="#F1F1F1" height="48" id="MultiLineString" rx="2.5" ry="2.5" style="stroke:#181818;stroke-width:0.5;" width="134.0469" x="309.25" y="331"/><ellipse cx="324.25" cy="347" fill="#ADD1B2" rx="11" ry="11" style="stroke:#181818;stroke-width:1.0;"/><path d="M326.7231,353.1431 Q326.1421,353.4419 325.5029,353.5913 Q324.8638,353.7407 324.1582,353.7407 Q321.6514,353.7407 320.3315,352.0889 Q319.0117,350.437 319.0117,347.3159 Q319.0117,344.1865 320.3315,342.5347 Q321.6514,340.8828 324.1582,340.8828 Q324.8638,340.8828 325.5112,341.0322 Q326.1587,341.1816 326.7231,341.4805 L326.7231,344.2031 Q326.0923,343.6221 325.4988,343.3523 Q324.9053,343.0825 324.2744,343.0825 Q322.9297,343.0825 322.2449,344.1492 Q321.5601,345.2158 321.5601,347.3159 Q321.5601,349.4077 322.2449,350.4744 Q322.9297,351.541 324.2744,351.541 Q324.9053,351.541 325.4988,351.2712 Q326.0923,351.0015 326.7231,350.4204 Z " fill="#000000"/><text fill="#000000" font-family="sans-serif" font-size="14" lengthAdjust="spacing" textLength="102.0469" x="338.25" y="352.291">MultiLineString</text><line style="stroke:#181818;stroke-width:0.5;" x1="310.25" x2="442.2969" y1="363" y2="363"/><line style="stroke:#181818;stroke-width:0.5;" x1="310.25" x2="442.2969" y1="371" y2="371"/></g><!--class MultiPolygon--><g id="elem_MultiPolygon"><rect codeLine="302" fill="#F1F1F1" height="48" id="MultiPolygon" rx="2.5" ry="2.5" style="stroke:#181818;stroke-width:0.5;" width="119.7939" x="478.38" y="331"/><ellipse cx="493.38" cy="347" fill="#ADD1B2" rx="11" ry="11" style="stroke:#181818;stroke-width:1.0;"/><path d="M495.8531,353.1431 Q495.2721,353.4419 494.6329,353.5913 Q493.9938,353.7407 493.2882,353.7407 Q490.7814,353.7407 489.4615,352.0889 Q488.1417,350.437 488.1417,347.3159 Q488.1417,344.1865 489.4615,342.5347 Q490.7814,340.8828 493.2882,340.8828 Q493.9938,340.8828 494.6412,341.0322 Q495.2887,341.1816 495.8531,341.4805 L495.8531,344.2031 Q495.2223,343.6221 494.6288,343.3523 Q494.0353,343.0825 493.4044,343.0825 Q492.0597,343.0825 491.3749,344.1492 Q490.6901,345.2158 490.6901,347.3159 Q490.6901,349.4077 491.3749,350.4744 Q492.0597,351.541 493.4044,351.541 Q494.0353,351.541 494.6288,351.2712 Q495.2223,351.0015 495.8531,350.4204 Z " fill="#000000"/><text fill="#000000" font-family="sans-serif" font-size="14" lengthAdjust="spacing" textLength="87.7939" x="507.38" y="352.291">MultiPolygon</text><line style="stroke:#181818;stroke-width:0.5;" x1="479.38" x2="597.1739" y1="363" y2="363"/><line style="stroke:#181818;stroke-width:0.5;" x1="479.38" x2="597.1739" y1="371" y2="371"/></g><!--class MultiPoint--><g id="elem_MultiPoint"><rect codeLine="303" fill="#F1F1F1" height="48" id="MultiPoint" rx="2.5" ry="2.5" style="stroke:#181818;stroke-width:0.5;" width="100.3867" x="43.08" y="439"/><ellipse cx="58.08" cy="455" fill="#ADD1B2" rx="11" ry="11" style="stroke:#181818;stroke-width:1.0;"/><path d="M60.5531,461.1431 Q59.9721,461.4419 59.3329,461.5913 Q58.6938,461.7407 57.9882,461.7407 Q55.4814,461.7407 54.1615,460.0889 Q52.8417,458.437 52.8417,455.3159 Q52.8417,452.1865 54.1615,450.5347 Q55.4814,448.8828 57.9882,448.8828 Q58.6938,448.8828 59.3412,449.0322 Q59.9887,449.1816 60.5531,449.4805 L60.5531,452.2031 Q59.9223,451.6221 59.3288,451.3523 Q58.7353,451.0825 58.1044,451.0825 Q56.7597,451.0825 56.0749,452.1492 Q55.3901,453.2158 55.3901,455.3159 Q55.3901,457.4077 56.0749,458.4744 Q56.7597,459.541 58.1044,459.541 Q58.7353,459.541 59.3288,459.2712 Q59.9223,459.0015 60.5531,458.4204 Z " fill="#000000"/><text fill="#000000" font-family="sans-serif" font-size="14" lengthAdjust="spacing" textLength="68.3867" x="72.08" y="460.291">MultiPoint</text><line style="stroke:#181818;stroke-width:0.5;" x1="44.08" x2="142.4667" y1="471" y2="471"/><line style="stroke:#181818;stroke-width:0.5;" x1="44.08" x2="142.4667" y1="479" y2="479"/></g><!--class LineString--><g id="elem_LineString"><rect codeLine="304" fill="#F1F1F1" height="48" id="LineString" rx="2.5" ry="2.5" style="stroke:#181818;stroke-width:0.5;" width="99.9697" x="178.29" y="439"/><ellipse cx="193.29" cy="455" fill="#ADD1B2" rx="11" ry="11" style="stroke:#181818;stroke-width:1.0;"/><path d="M195.7631,461.1431 Q195.1821,461.4419 194.5429,461.5913 Q193.9038,461.7407 193.1982,461.7407 Q190.6914,461.7407 189.3715,460.0889 Q188.0517,458.437 188.0517,455.3159 Q188.0517,452.1865 189.3715,450.5347 Q190.6914,448.8828 193.1982,448.8828 Q193.9038,448.8828 194.5512,449.0322 Q195.1987,449.1816 195.7631,449.4805 L195.7631,452.2031 Q195.1323,451.6221 194.5388,451.3523 Q193.9453,451.0825 193.3144,451.0825 Q191.9697,451.0825 191.2849,452.1492 Q190.6001,453.2158 190.6001,455.3159 Q190.6001,457.4077 191.2849,458.4744 Q191.9697,459.541 193.3144,459.541 Q193.9453,459.541 194.5388,459.2712 Q195.1323,459.0015 195.7631,458.4204 Z " fill="#000000"/><text fill="#000000" font-family="sans-serif" font-size="14" lengthAdjust="spacing" textLength="67.9697" x="207.29" y="460.291">LineString</text><line style="stroke:#181818;stroke-width:0.5;" x1="179.29" x2="277.2597" y1="471" y2="471"/><line style="stroke:#181818;stroke-width:0.5;" x1="179.29" x2="277.2597" y1="479" y2="479"/></g><!--class Polygon--><g id="elem_Polygon"><rect codeLine="305" fill="#F1F1F1" height="48" id="Polygon" rx="2.5" ry="2.5" style="stroke:#181818;stroke-width:0.5;" width="85.7168" x="333.42" y="439"/><ellipse cx="348.42" cy="455" fill="#ADD1B2" rx="11" ry="11" style="stroke:#181818;stroke-width:1.0;"/><path d="M350.8931,461.1431 Q350.3121,461.4419 349.6729,461.5913 Q349.0338,461.7407 348.3282,461.7407 Q345.8214,461.7407 344.5015,460.0889 Q343.1817,458.437 343.1817,455.3159 Q343.1817,452.1865 344.5015,450.5347 Q345.8214,448.8828 348.3282,448.8828 Q349.0338,448.8828 349.6812,449.0322 Q350.3287,449.1816 350.8931,449.4805 L350.8931,452.2031 Q350.2623,451.6221 349.6688,451.3523 Q349.0753,451.0825 348.4444,451.0825 Q347.0997,451.0825 346.4149,452.1492 Q345.7301,453.2158 345.7301,455.3159 Q345.7301,457.4077 346.4149,458.4744 Q347.0997,459.541 348.4444,459.541 Q349.0753,459.541 349.6688,459.2712 Q350.2623,459.0015 350.8931,458.4204 Z " fill="#000000"/><text fill="#000000" font-family="sans-serif" font-size="14" lengthAdjust="spacing" textLength="53.7168" x="362.42" y="460.291">Polygon</text><line style="stroke:#181818;stroke-width:0.5;" x1="334.42" x2="418.1368" y1="471" y2="471"/><line style="stroke:#181818;stroke-width:0.5;" x1="334.42" x2="418.1368" y1="479" y2="479"/></g><!--reverse link Jsonable to Geometry--><g id="link_Jsonable_Geometry"><path codeLine="307" d="M660.28,73.26 C660.28,90.94 660.28,97.13 660.28,114.79 " fill="none" id="Jsonable-backto-Geometry" style="stroke:#181818;stroke-width:1.0;stroke-dasharray:7.0,7.0;"/><polygon fill="none" points="660.28,55.26,654.28,73.26,666.28,73.26,660.28,55.26" style="stroke:#181818;stroke-width:1.0;"/></g><!--reverse link JsonSerializable to Geometry--><g id="link_JsonSerializable_Geometry"><path codeLine="308" d="M761.9116,65.6926 C737.1516,83.3026 717.96,96.97 693.16,114.61 " fill="none" id="JsonSerializable-backto-Geometry" style="stroke:#181818;stroke-width:1.0;stroke-dasharray:7.0,7.0;"/><polygon fill="none" points="776.58,55.26,758.4341,60.8031,765.3891,70.582,776.58,55.26" style="stroke:#181818;stroke-width:1.0;"/></g><!--reverse link GeometryInterface to Geometry--><g id="link_GeometryInterface_Geometry"><path codeLine="309" d="M551.8979,65.2879 C578.1479,82.8979 599.11,96.97 625.41,114.61 " fill="none" id="GeometryInterface-backto-Geometry" style="stroke:#181818;stroke-width:1.0;stroke-dasharray:7.0,7.0;"/><polygon fill="none" points="536.95,55.26,548.5553,70.2706,555.2406,60.3053,536.95,55.26" style="stroke:#181818;stroke-width:1.0;"/></g><!--reverse link Geometry to Point--><g id="link_Geometry_Point"><path codeLine="310" d="M660.28,181.26 C660.28,198.94 660.28,205.13 660.28,222.79 " fill="none" id="Geometry-backto-Point" style="stroke:#181818;stroke-width:1.0;"/><polygon fill="none" points="660.28,163.26,654.28,181.26,666.28,181.26,660.28,163.26" style="stroke:#181818;stroke-width:1.0;"/></g><!--reverse link Geometry to GeometryCollection--><g id="link_Geometry_GeometryCollection"><path codeLine="311" d="M594.2666,164.635 C546.6366,182.415 491.06,203.16 439.23,222.5 " fill="none" id="Geometry-backto-GeometryCollection" style="stroke:#181818;stroke-width:1.0;"/><polygon fill="none" points="611.13,158.34,592.1683,159.0139,596.365,170.2561,611.13,158.34" style="stroke:#181818;stroke-width:1.0;"/></g><!--reverse link Arrayable to GeometryCollection--><g id="link_Arrayable_GeometryCollection"><path codeLine="312" d="M120.8447,163.2812 C181.9047,183.9812 250.96,206.2 302.17,222.55 " fill="none" id="Arrayable-backto-GeometryCollection" style="stroke:#181818;stroke-width:1.0;stroke-dasharray:7.0,7.0;"/><polygon fill="none" points="103.85,157.35,118.8676,168.9462,122.8218,157.6163,103.85,157.35" style="stroke:#181818;stroke-width:1.0;"/></g><!--reverse link IteratorAggregate to GeometryCollection--><g id="link_IteratorAggregate_GeometryCollection"><path codeLine="313" d="M264.8916,173.1164 C291.8016,190.7264 313.56,204.97 340.53,222.61 " fill="none" id="IteratorAggregate-backto-GeometryCollection" style="stroke:#181818;stroke-width:1.0;stroke-dasharray:7.0,7.0;"/><polygon fill="none" points="249.83,163.26,261.6062,178.1369,268.1771,168.0958,249.83,163.26" style="stroke:#181818;stroke-width:1.0;"/></g><!--reverse link Countable to GeometryCollection--><g id="link_Countable_GeometryCollection"><path codeLine="314" d="M376.28,181.26 C376.28,198.94 376.28,205.13 376.28,222.79 " fill="none" id="Countable-backto-GeometryCollection" style="stroke:#181818;stroke-width:1.0;stroke-dasharray:7.0,7.0;"/><polygon fill="none" points="376.28,163.26,370.28,181.26,382.28,181.26,376.28,163.26" style="stroke:#181818;stroke-width:1.0;"/></g><!--reverse link ArrayAccess to GeometryCollection--><g id="link_ArrayAccess_GeometryCollection"><path codeLine="315" d="M473.432,173.9822 C449.592,191.6622 431.41,205.13 407.58,222.79 " fill="none" id="ArrayAccess-backto-GeometryCollection" style="stroke:#181818;stroke-width:1.0;stroke-dasharray:7.0,7.0;"/><polygon fill="none" points="487.89,163.26,469.8579,169.1629,477.0061,178.8016,487.89,163.26" style="stroke:#181818;stroke-width:1.0;"/></g><!--reverse link GeometryCollection to PointCollection--><g id="link_GeometryCollection_PointCollection"><path codeLine="316" d="M323.9407,280.8234 C295.8607,298.4334 272.7,312.97 244.57,330.61 " fill="none" id="GeometryCollection-backto-PointCollection" style="stroke:#181818;stroke-width:1.0;"/><polygon fill="none" points="339.19,271.26,320.7529,275.7403,327.1285,285.9065,339.19,271.26" style="stroke:#181818;stroke-width:1.0;"/></g><!--reverse link PointCollection to MultiPoint--><g id="link_PointCollection_MultiPoint"><path codeLine="317" d="M169.0794,391.5185 C150.0694,409.1985 137.23,421.13 118.24,438.79 " fill="none" id="PointCollection-backto-MultiPoint" style="stroke:#181818;stroke-width:1.0;"/><polygon fill="none" points="182.26,379.26,164.9932,387.1249,173.1655,395.912,182.26,379.26" style="stroke:#181818;stroke-width:1.0;"/></g><!--reverse link PointCollection to LineString--><g id="link_PointCollection_LineString"><path codeLine="318" d="M215.3851,396.9154 C218.8951,414.5954 220.18,421.13 223.68,438.79 " fill="none" id="PointCollection-backto-LineString" style="stroke:#181818;stroke-width:1.0;"/><polygon fill="none" points="211.88,379.26,209.5,398.0838,221.2703,395.7471,211.88,379.26" style="stroke:#181818;stroke-width:1.0;"/></g><!--reverse link GeometryCollection to MultiLineString--><g id="link_GeometryCollection_MultiLineString"><path codeLine="319" d="M376.28,289.26 C376.28,306.94 376.28,313.13 376.28,330.79 " fill="none" id="GeometryCollection-backto-MultiLineString" style="stroke:#181818;stroke-width:1.0;"/><polygon fill="none" points="376.28,271.26,370.28,289.26,382.28,289.26,376.28,271.26" style="stroke:#181818;stroke-width:1.0;"/></g><!--reverse link MultiLineString to Polygon--><g id="link_MultiLineString_Polygon"><path codeLine="320" d="M376.28,397.26 C376.28,414.94 376.28,421.13 376.28,438.79 " fill="none" id="MultiLineString-backto-Polygon" style="stroke:#181818;stroke-width:1.0;"/><polygon fill="none" points="376.28,379.26,370.28,397.26,382.28,397.26,376.28,379.26" style="stroke:#181818;stroke-width:1.0;"/></g><!--reverse link GeometryCollection to MultiPolygon--><g id="link_GeometryCollection_MultiPolygon"><path codeLine="321" d="M426.8916,281.1164 C453.8016,298.7264 475.56,312.97 502.53,330.61 " fill="none" id="GeometryCollection-backto-MultiPolygon" style="stroke:#181818;stroke-width:1.0;"/><polygon fill="none" points="411.83,271.26,423.6062,286.1369,430.1771,276.0958,411.83,271.26" style="stroke:#181818;stroke-width:1.0;"/></g><!--SRC=[ZP91giCW48Rtdc8kq9wWcv15oUCL2Zs1bQa8FWMTBb9w-8Oa9ZeMULcPVpv_n_arZZ0yf48ue_z32kEG566ssa_qJjujYg6GRXYCjEOrbtQw2q6EJ1kcXIGVEgq3QacvLU-VZfZzxD4fXJ4AUOyKf2BehOnnQrIKlxst5XKPxzR2rK_7yyspMA6NfoNpQnpUA1YdS_NgxQXBS35UX6fJuaMQ6PpUn-FUD9yRArSfb7KGiAzFxyDXlILNlmm5fczBfdHbL9LLazxIWoQM1Te6uKiXksf50zSNE4kgoMK1ja_dRoIvCZsrEhy2WF-Ohl07]--></g></svg>